<svg width="210" height="42" viewBox="0 0 210 42" fill="none" xmlns="http://www.w3.org/2000/svg">
<path d="M133.237 38.692C132.641 38.692 132.092 38.5975 131.591 38.4086C131.097 38.2123 130.664 37.9398 130.294 37.5909C129.923 37.2348 129.636 36.8169 129.432 36.3372C129.229 35.8576 129.127 35.3343 129.127 34.7674C129.127 34.2005 129.229 33.6772 129.432 33.1975C129.636 32.7179 129.923 32.3036 130.294 31.9547C130.672 31.5986 131.111 31.3261 131.613 31.1371C132.114 30.9409 132.663 30.8428 133.259 30.8428C133.906 30.8428 134.487 30.9482 135.003 31.1589C135.526 31.3697 135.966 31.6786 136.322 32.0856L135.428 32.9577C135.13 32.6597 134.807 32.4417 134.458 32.3036C134.116 32.1582 133.739 32.0856 133.324 32.0856C132.925 32.0856 132.554 32.151 132.212 32.2818C131.871 32.4126 131.576 32.598 131.329 32.8378C131.082 33.0776 130.89 33.3611 130.751 33.6881C130.621 34.0152 130.555 34.3749 130.555 34.7674C130.555 35.1526 130.621 35.5087 130.751 35.8358C130.89 36.1628 131.082 36.4499 131.329 36.697C131.576 36.9368 131.867 37.1222 132.201 37.253C132.536 37.3838 132.906 37.4492 133.313 37.4492C133.691 37.4492 134.055 37.3911 134.404 37.2748C134.76 37.1512 135.098 36.9477 135.417 36.6643L136.224 37.7218C135.824 38.0416 135.359 38.285 134.829 38.4522C134.305 38.6121 133.775 38.692 133.237 38.692ZM134.883 37.5364V34.6802H136.224V37.7218L134.883 37.5364ZM138.093 38.583V30.9518H141.233C141.909 30.9518 142.487 31.0608 142.966 31.2788C143.453 31.4969 143.828 31.8094 144.089 32.2164C144.351 32.6234 144.482 33.1067 144.482 33.6663C144.482 34.2259 144.351 34.7093 144.089 35.1163C143.828 35.516 143.453 35.8249 142.966 36.0429C142.487 36.2537 141.909 36.3591 141.233 36.3591H138.878L139.511 35.7159V38.583H138.093ZM143.086 38.583L141.157 35.814H142.672L144.613 38.583H143.086ZM139.511 35.8685L138.878 35.1926H141.168C141.793 35.1926 142.261 35.0581 142.574 34.7892C142.894 34.5203 143.054 34.146 143.054 33.6663C143.054 33.1794 142.894 32.8051 142.574 32.5434C142.261 32.2818 141.793 32.151 141.168 32.151H138.878L139.511 31.4533V35.8685ZM149.643 38.692C149.047 38.692 148.498 38.5939 147.997 38.3977C147.496 38.2014 147.059 37.9289 146.689 37.58C146.318 37.2239 146.031 36.8097 145.828 36.3372C145.624 35.8576 145.522 35.3343 145.522 34.7674C145.522 34.2005 145.624 33.6809 145.828 33.2085C146.031 32.7288 146.318 32.3145 146.689 31.9657C147.059 31.6095 147.496 31.3334 147.997 31.1371C148.498 30.9409 149.044 30.8428 149.632 30.8428C150.228 30.8428 150.773 30.9409 151.268 31.1371C151.769 31.3334 152.205 31.6095 152.576 31.9657C152.946 32.3145 153.233 32.7288 153.437 33.2085C153.64 33.6809 153.742 34.2005 153.742 34.7674C153.742 35.3343 153.64 35.8576 153.437 36.3372C153.233 36.8169 152.946 37.2312 152.576 37.58C152.205 37.9289 151.769 38.2014 151.268 38.3977C150.773 38.5939 150.232 38.692 149.643 38.692ZM149.632 37.4492C150.017 37.4492 150.374 37.3838 150.701 37.253C151.028 37.1222 151.311 36.9368 151.551 36.697C151.791 36.4499 151.976 36.1665 152.107 35.8467C152.245 35.5196 152.314 35.1599 152.314 34.7674C152.314 34.3749 152.245 34.0188 152.107 33.699C151.976 33.372 151.791 33.0885 151.551 32.8487C151.311 32.6016 151.028 32.4126 150.701 32.2818C150.374 32.151 150.017 32.0856 149.632 32.0856C149.247 32.0856 148.891 32.151 148.564 32.2818C148.244 32.4126 147.961 32.6016 147.714 32.8487C147.474 33.0885 147.285 33.372 147.147 33.699C147.016 34.0188 146.95 34.3749 146.95 34.7674C146.95 35.1526 147.016 35.5087 147.147 35.8358C147.285 36.1628 147.474 36.4499 147.714 36.697C147.953 36.9368 148.237 37.1222 148.564 37.253C148.891 37.3838 149.247 37.4492 149.632 37.4492ZM156.809 38.583L154.28 30.9518H155.752L158.008 37.8526H157.278L159.622 30.9518H160.93L163.208 37.8526H162.5L164.811 30.9518H166.163L163.633 38.583H162.129L160.047 32.3581H160.439L158.324 38.583H156.809Z" fill="white"/>
<ellipse cx="119.465" cy="35.3298" rx="2.2712" ry="2.24893" fill="#D9D9D9"/>
<path d="M1.39631 38.583V30.9518H2.81353V38.583H1.39631ZM4.87762 38.583V30.9518H6.04411L10.83 36.8278H10.2522V30.9518H11.6585V38.583H10.492L5.70615 32.707H6.28395V38.583H4.87762ZM13.7033 38.583V30.9518H14.8698L19.6557 36.8278H19.0779V30.9518H20.4842V38.583H19.3177L14.5319 32.707H15.1097V38.583H13.7033ZM26.1048 38.692C25.5089 38.692 24.9602 38.5939 24.4587 38.3977C23.9572 38.2014 23.5211 37.9289 23.1505 37.58C22.7798 37.2239 22.4927 36.8097 22.2892 36.3372C22.0857 35.8576 21.984 35.3343 21.984 34.7674C21.984 34.2005 22.0857 33.6809 22.2892 33.2085C22.4927 32.7288 22.7798 32.3145 23.1505 31.9657C23.5211 31.6095 23.9572 31.3334 24.4587 31.1371C24.9602 30.9409 25.5052 30.8428 26.0939 30.8428C26.6899 30.8428 27.235 30.9409 27.7292 31.1371C28.2307 31.3334 28.6668 31.6095 29.0374 31.9657C29.4081 32.3145 29.6951 32.7288 29.8986 33.2085C30.1021 33.6809 30.2039 34.2005 30.2039 34.7674C30.2039 35.3343 30.1021 35.8576 29.8986 36.3372C29.6951 36.8169 29.4081 37.2312 29.0374 37.58C28.6668 37.9289 28.2307 38.2014 27.7292 38.3977C27.235 38.5939 26.6935 38.692 26.1048 38.692ZM26.0939 37.4492C26.4791 37.4492 26.8353 37.3838 27.1623 37.253C27.4894 37.1222 27.7728 36.9368 28.0126 36.697C28.2525 36.4499 28.4378 36.1665 28.5686 35.8467C28.7067 35.5196 28.7758 35.1599 28.7758 34.7674C28.7758 34.3749 28.7067 34.0188 28.5686 33.699C28.4378 33.372 28.2525 33.0885 28.0126 32.8487C27.7728 32.6016 27.4894 32.4126 27.1623 32.2818C26.8353 32.151 26.4791 32.0856 26.0939 32.0856C25.7087 32.0856 25.3526 32.151 25.0256 32.2818C24.7058 32.4126 24.4223 32.6016 24.1752 32.8487C23.9354 33.0885 23.7464 33.372 23.6083 33.699C23.4775 34.0188 23.4121 34.3749 23.4121 34.7674C23.4121 35.1526 23.4775 35.5087 23.6083 35.8358C23.7464 36.1628 23.9354 36.4499 24.1752 36.697C24.4151 36.9368 24.6985 37.1222 25.0256 37.253C25.3526 37.3838 25.7087 37.4492 26.0939 37.4492ZM33.7286 38.583L30.3926 30.9518H31.9298L34.906 37.8526H34.0229L37.0318 30.9518H38.449L35.124 38.583H33.7286ZM37.9302 38.583L41.3642 30.9518H42.7596L46.2046 38.583H44.7219L41.7676 31.704H42.3345L39.391 38.583H37.9302ZM39.5109 36.8169L39.8925 35.7049H44.0133L44.3949 36.8169H39.5109ZM48.3399 38.583V32.151H45.8107V30.9518H52.2863V32.151H49.7571V38.583H48.3399ZM54.6581 34.1242H58.4519V35.2907H54.6581V34.1242ZM54.7671 37.3947H59.0733V38.583H53.3499V30.9518H58.9207V32.1401H54.7671V37.3947Z" fill="white"/>
<path d="M76.5179 38.583V30.9518H80.0937C81.0094 30.9518 81.7071 31.1335 82.1868 31.4969C82.6665 31.853 82.9063 32.3327 82.9063 32.9359C82.9063 33.3429 82.8118 33.6918 82.6229 33.9825C82.4339 34.2659 82.1795 34.4876 81.8597 34.6475C81.5472 34.8001 81.2056 34.8764 80.835 34.8764L81.0312 34.484C81.46 34.484 81.8452 34.5639 82.1868 34.7238C82.5284 34.8764 82.7973 35.1017 82.9935 35.3997C83.197 35.6977 83.2988 36.0683 83.2988 36.5117C83.2988 37.1658 83.048 37.6745 82.5466 38.0379C82.0451 38.4013 81.3001 38.583 80.3117 38.583H76.5179ZM77.9351 37.471H80.2245C80.755 37.471 81.162 37.3838 81.4455 37.2094C81.7289 37.035 81.8706 36.7551 81.8706 36.37C81.8706 35.992 81.7289 35.7159 81.4455 35.5414C81.162 35.3597 80.755 35.2689 80.2245 35.2689H77.8261V34.1678H79.941C80.4353 34.1678 80.8132 34.0806 81.0748 33.9062C81.3437 33.7317 81.4782 33.4701 81.4782 33.1212C81.4782 32.7651 81.3437 32.4998 81.0748 32.3254C80.8132 32.151 80.4353 32.0638 79.941 32.0638H77.9351V37.471ZM88.0927 38.692C87.0462 38.692 86.2249 38.3977 85.6289 37.809C85.0402 37.2203 84.7459 36.37 84.7459 35.258V30.9518H86.1631V35.2035C86.1631 35.9884 86.3303 36.5589 86.6646 36.915C87.0062 37.2712 87.4859 37.4492 88.1036 37.4492C88.7214 37.4492 89.1974 37.2712 89.5318 36.915C89.8661 36.5589 90.0332 35.9884 90.0332 35.2035V30.9518H91.4287V35.258C91.4287 36.37 91.1307 37.2203 90.5347 37.809C89.946 38.3977 89.132 38.692 88.0927 38.692ZM93.4135 38.583V30.9518H94.8307V38.583H93.4135ZM96.8948 38.583V30.9518H98.312V37.3838H102.302V38.583H96.8948ZM103.421 38.583V30.9518H106.757C107.585 30.9518 108.312 31.1117 108.937 31.4315C109.562 31.7513 110.049 32.1946 110.398 32.7615C110.747 33.3284 110.921 33.997 110.921 34.7674C110.921 35.5305 110.747 36.1992 110.398 36.7733C110.049 37.3402 109.562 37.7835 108.937 38.1033C108.312 38.4231 107.585 38.583 106.757 38.583H103.421ZM104.838 37.3838H106.691C107.266 37.3838 107.76 37.2748 108.174 37.0568C108.596 36.8387 108.919 36.5335 109.144 36.141C109.377 35.7486 109.493 35.2907 109.493 34.7674C109.493 34.2368 109.377 33.779 109.144 33.3938C108.919 33.0013 108.596 32.6961 108.174 32.478C107.76 32.26 107.266 32.151 106.691 32.151H104.838V37.3838Z" fill="white"/>
<ellipse cx="68.3627" cy="35.3298" rx="2.2712" ry="2.24893" fill="#D9D9D9"/>
<path d="M2.12056 20.9608V6.67279H8.36647C9.91774 6.67279 11.2785 6.97216 12.4488 7.57089C13.619 8.16963 14.5307 8.9997 15.1839 10.0611C15.8371 11.1225 16.1636 12.3744 16.1636 13.8168C16.1636 15.2456 15.8371 16.4975 15.1839 17.5725C14.5307 18.6339 13.619 19.464 12.4488 20.0627C11.2785 20.6614 9.91774 20.9608 8.36647 20.9608H2.12056ZM4.77405 18.7156H8.244C9.319 18.7156 10.2443 18.5114 11.02 18.1032C11.8092 17.695 12.4147 17.1235 12.8366 16.3886C13.272 15.6538 13.4897 14.7966 13.4897 13.8168C13.4897 12.8234 13.272 11.9662 12.8366 11.245C12.4147 10.5101 11.8092 9.93862 11.02 9.5304C10.2443 9.12217 9.319 8.91805 8.244 8.91805H4.77405V18.7156ZM23.8623 21.1037C22.6512 21.1037 21.5898 20.8656 20.6781 20.3893C19.78 19.8994 19.0792 19.2326 18.5757 18.389C18.0858 17.5453 17.8409 16.586 17.8409 15.511C17.8409 14.4223 18.079 13.463 18.5553 12.6329C19.0452 11.7893 19.7119 11.1293 20.5556 10.653C21.4129 10.1768 22.3858 9.93862 23.4745 9.93862C24.5359 9.93862 25.4816 10.17 26.3117 10.6326C27.1417 11.0953 27.7949 11.7484 28.2712 12.5921C28.7474 13.4358 28.9856 14.4291 28.9856 15.5722C28.9856 15.681 28.9788 15.8035 28.9651 15.9396C28.9651 16.0757 28.9583 16.2049 28.9447 16.3274H19.8616V14.6333H27.5976L26.5974 15.164C26.611 14.538 26.4817 13.9869 26.2096 13.5106C25.9374 13.0344 25.5632 12.6602 25.087 12.388C24.6243 12.1158 24.0868 11.9798 23.4745 11.9798C22.8485 11.9798 22.2974 12.1158 21.8211 12.388C21.3585 12.6602 20.9911 13.0412 20.7189 13.531C20.4604 14.0073 20.3311 14.572 20.3311 15.2252V15.6334C20.3311 16.2866 20.4808 16.8649 20.7801 17.3684C21.0795 17.8719 21.5014 18.2597 22.0457 18.5319C22.59 18.804 23.2159 18.9401 23.9235 18.9401C24.5359 18.9401 25.087 18.8448 25.5768 18.6543C26.0667 18.4638 26.5022 18.1644 26.8832 17.7562L28.2507 19.3279C27.7609 19.8994 27.1417 20.3417 26.3933 20.6546C25.6585 20.954 24.8148 21.1037 23.8623 21.1037ZM34.1355 20.9608L29.4612 10.0611H32.1147L36.1358 19.6749H34.8295L38.9934 10.0611H41.4428L36.7685 20.9608H34.1355ZM43.2824 20.9608V6.67279H45.4664L54.427 17.6746H53.3452V6.67279H55.9783V20.9608H53.7943L44.8336 9.95904H45.9154V20.9608H43.2824ZM64.6852 21.1037C63.4741 21.1037 62.4127 20.8656 61.501 20.3893C60.6029 19.8994 59.9021 19.2326 59.3986 18.389C58.9088 17.5453 58.6638 16.586 58.6638 15.511C58.6638 14.4223 58.902 13.463 59.3782 12.6329C59.8681 11.7893 60.5349 11.1293 61.3785 10.653C62.2358 10.1768 63.2088 9.93862 64.2974 9.93862C65.3588 9.93862 66.3045 10.17 67.1346 10.6326C67.9646 11.0953 68.6178 11.7484 69.0941 12.5921C69.5703 13.4358 69.8085 14.4291 69.8085 15.5722C69.8085 15.681 69.8017 15.8035 69.7881 15.9396C69.7881 16.0757 69.7813 16.2049 69.7677 16.3274H60.6846V14.6333H68.4205L67.4203 15.164C67.4339 14.538 67.3047 13.9869 67.0325 13.5106C66.7604 13.0344 66.3862 12.6602 65.9099 12.388C65.4472 12.1158 64.9097 11.9798 64.2974 11.9798C63.6714 11.9798 63.1203 12.1158 62.6441 12.388C62.1814 12.6602 61.814 13.0412 61.5418 13.531C61.2833 14.0073 61.154 14.572 61.154 15.2252V15.6334C61.154 16.2866 61.3037 16.8649 61.6031 17.3684C61.9024 17.8719 62.3243 18.2597 62.8686 18.5319C63.4129 18.804 64.0388 18.9401 64.7464 18.9401C65.3588 18.9401 65.9099 18.8448 66.3998 18.6543C66.8896 18.4638 67.3251 18.1644 67.7061 17.7562L69.0737 19.3279C68.5838 19.8994 67.9646 20.3417 67.2162 20.6546C66.4814 20.954 65.6377 21.1037 64.6852 21.1037ZM70.4703 20.9608L75.267 14.7149L75.2261 16.0825L70.654 10.0611H73.4912L76.6958 14.3475H75.614L78.839 10.0611H81.5945L76.9815 16.0825L77.0019 14.7149L81.7782 20.9608H78.9002L75.5323 16.4091L76.5937 16.5519L73.287 20.9608H70.4703ZM88.0747 21.1037C87.1494 21.1037 86.3329 20.9336 85.6253 20.5934C84.9177 20.2396 84.3666 19.7089 83.972 19.0013C83.5773 18.2801 83.38 17.3752 83.38 16.2866V10.0611H85.9315V15.9396C85.9315 16.9193 86.1492 17.6542 86.5846 18.144C87.0337 18.6203 87.6664 18.8584 88.4829 18.8584C89.0816 18.8584 89.5987 18.736 90.0342 18.491C90.4832 18.2461 90.8302 17.8787 91.0752 17.3888C91.3337 16.8989 91.463 16.2934 91.463 15.5722V10.0611H94.0144V20.9608H91.5854V18.0216L92.0141 18.9197C91.6467 19.6273 91.1092 20.1716 90.4016 20.5526C89.694 20.92 88.9183 21.1037 88.0747 21.1037ZM100.723 21.1037C99.8112 21.1037 98.9335 20.988 98.0898 20.7567C97.2598 20.5118 96.5998 20.2192 96.1099 19.879L97.0897 17.9399C97.5796 18.2529 98.1647 18.5114 98.8451 18.7156C99.5254 18.9197 100.206 19.0217 100.886 19.0217C101.689 19.0217 102.267 18.9129 102.621 18.6951C102.989 18.4774 103.172 18.1849 103.172 17.8174C103.172 17.5181 103.05 17.2936 102.805 17.1439C102.56 16.9806 102.24 16.8581 101.846 16.7765C101.451 16.6948 101.009 16.62 100.519 16.5519C100.043 16.4839 99.5595 16.3955 99.0696 16.2866C98.5933 16.1641 98.1579 15.994 97.7633 15.7763C97.3686 15.545 97.0489 15.2388 96.8039 14.8578C96.559 14.4768 96.4365 13.9733 96.4365 13.3473C96.4365 12.6533 96.6338 12.0546 97.0284 11.5511C97.4231 11.034 97.9742 10.6394 98.6818 10.3673C99.403 10.0815 100.253 9.93862 101.233 9.93862C101.968 9.93862 102.71 10.0203 103.458 10.1836C104.206 10.3469 104.826 10.5782 105.316 10.8776L104.336 12.8166C103.819 12.5037 103.295 12.2927 102.764 12.1839C102.247 12.0614 101.73 12.0002 101.213 12.0002C100.437 12.0002 99.8588 12.1158 99.4778 12.3472C99.1104 12.5785 98.9267 12.8711 98.9267 13.2249C98.9267 13.5515 99.0492 13.7964 99.2941 13.9597C99.5391 14.123 99.8588 14.2522 100.253 14.3475C100.648 14.4428 101.084 14.5244 101.56 14.5924C102.05 14.6469 102.533 14.7353 103.009 14.8578C103.485 14.9803 103.921 15.1504 104.315 15.3681C104.724 15.5722 105.05 15.8648 105.295 16.2458C105.54 16.6268 105.662 17.1235 105.662 17.7358C105.662 18.4162 105.458 19.0081 105.05 19.5116C104.656 20.0151 104.091 20.4097 103.356 20.6955C102.621 20.9676 101.743 21.1037 100.723 21.1037ZM118.175 21.1649C117.059 21.1649 115.991 21.0084 114.97 20.6955C113.95 20.3689 113.14 19.9538 112.541 19.4504L113.46 17.3888C114.032 17.8379 114.739 18.2121 115.583 18.5114C116.426 18.8108 117.291 18.9605 118.175 18.9605C118.923 18.9605 119.529 18.8788 119.992 18.7156C120.454 18.5523 120.795 18.3345 121.012 18.0624C121.23 17.7766 121.339 17.4568 121.339 17.103C121.339 16.6676 121.182 16.3206 120.869 16.0621C120.556 15.7899 120.148 15.579 119.645 15.4293C119.155 15.266 118.604 15.1163 117.991 14.9803C117.393 14.8442 116.787 14.6877 116.175 14.5108C115.576 14.3203 115.025 14.0822 114.521 13.7964C114.032 13.497 113.63 13.1024 113.317 12.6125C113.004 12.1227 112.848 11.4967 112.848 10.7347C112.848 9.95904 113.052 9.25144 113.46 8.61188C113.882 7.95871 114.515 7.44162 115.358 7.06061C116.216 6.66599 117.297 6.46867 118.604 6.46867C119.461 6.46867 120.311 6.57754 121.155 6.79526C121.999 7.01298 122.734 7.32596 123.36 7.73419L122.523 9.79574C121.883 9.41473 121.223 9.13577 120.543 8.95887C119.862 8.76837 119.209 8.67311 118.583 8.67311C117.848 8.67311 117.25 8.76156 116.787 8.93846C116.338 9.11536 116.005 9.34669 115.787 9.63245C115.583 9.91821 115.481 10.2448 115.481 10.6122C115.481 11.0476 115.63 11.4014 115.93 11.6736C116.243 11.9321 116.644 12.1363 117.134 12.2859C117.638 12.4356 118.195 12.5853 118.808 12.735C119.42 12.8711 120.026 13.0276 120.624 13.2045C121.237 13.3814 121.788 13.6127 122.278 13.8984C122.781 14.1842 123.183 14.572 123.482 15.0619C123.795 15.5518 123.951 16.1709 123.951 16.9193C123.951 17.6814 123.741 18.389 123.319 19.0421C122.911 19.6817 122.278 20.1988 121.42 20.5934C120.563 20.9744 119.481 21.1649 118.175 21.1649ZM131.236 21.1037C130.121 21.1037 129.127 20.8656 128.256 20.3893C127.386 19.8994 126.698 19.2326 126.195 18.389C125.691 17.5453 125.44 16.586 125.44 15.511C125.44 14.4223 125.691 13.463 126.195 12.6329C126.698 11.7893 127.386 11.1293 128.256 10.653C129.127 10.1768 130.121 9.93862 131.236 9.93862C132.366 9.93862 133.366 10.1768 134.237 10.653C135.121 11.1293 135.809 11.7825 136.299 12.6125C136.802 13.4426 137.054 14.4087 137.054 15.511C137.054 16.586 136.802 17.5453 136.299 18.389C135.809 19.2326 135.121 19.8994 134.237 20.3893C133.366 20.8656 132.366 21.1037 131.236 21.1037ZM131.236 18.9197C131.862 18.9197 132.42 18.7836 132.91 18.5114C133.4 18.2393 133.781 17.8447 134.053 17.3276C134.339 16.8105 134.482 16.2049 134.482 15.511C134.482 14.8034 134.339 14.1978 134.053 13.6943C133.781 13.1772 133.4 12.7826 132.91 12.5105C132.42 12.2383 131.869 12.1022 131.257 12.1022C130.631 12.1022 130.073 12.2383 129.583 12.5105C129.107 12.7826 128.726 13.1772 128.44 13.6943C128.154 14.1978 128.011 14.8034 128.011 15.511C128.011 16.2049 128.154 16.8105 128.44 17.3276C128.726 17.8447 129.107 18.2393 129.583 18.5114C130.073 18.7836 130.624 18.9197 131.236 18.9197ZM139.494 20.9608V5.81551H142.045V20.9608H139.494ZM150.007 21.1037C149.081 21.1037 148.265 20.9336 147.557 20.5934C146.85 20.2396 146.299 19.7089 145.904 19.0013C145.509 18.2801 145.312 17.3752 145.312 16.2866V10.0611H147.864V15.9396C147.864 16.9193 148.081 17.6542 148.517 18.144C148.966 18.6203 149.599 18.8584 150.415 18.8584C151.014 18.8584 151.531 18.736 151.966 18.491C152.415 18.2461 152.762 17.8787 153.007 17.3888C153.266 16.8989 153.395 16.2934 153.395 15.5722V10.0611H155.946V20.9608H153.518V18.0216L153.946 18.9197C153.579 19.6273 153.041 20.1716 152.334 20.5526C151.626 20.92 150.85 21.1037 150.007 21.1037ZM163.39 21.1037C162.192 21.1037 161.267 20.7975 160.614 20.1852C159.961 19.5592 159.634 18.6407 159.634 17.4296V7.65254H162.186V17.3684C162.186 17.8855 162.315 18.2869 162.573 18.5727C162.845 18.8584 163.22 19.0013 163.696 19.0013C164.267 19.0013 164.744 18.8516 165.125 18.5523L165.839 20.3689C165.54 20.6138 165.172 20.7975 164.737 20.92C164.301 21.0425 163.852 21.1037 163.39 21.1037ZM157.838 12.1839V10.1427H165.104V12.1839H157.838ZM167.938 20.9608V10.0611H170.489V20.9608H167.938ZM169.224 8.26488C168.748 8.26488 168.353 8.1152 168.04 7.81583C167.741 7.51646 167.591 7.15586 167.591 6.73402C167.591 6.29858 167.741 5.93798 168.04 5.65222C168.353 5.35285 168.748 5.20316 169.224 5.20316C169.7 5.20316 170.088 5.34604 170.387 5.6318C170.7 5.90396 170.857 6.25095 170.857 6.67279C170.857 7.12184 170.707 7.50286 170.408 7.81583C170.108 8.1152 169.714 8.26488 169.224 8.26488ZM178.737 21.1037C177.621 21.1037 176.628 20.8656 175.757 20.3893C174.886 19.8994 174.199 19.2326 173.695 18.389C173.192 17.5453 172.94 16.586 172.94 15.511C172.94 14.4223 173.192 13.463 173.695 12.6329C174.199 11.7893 174.886 11.1293 175.757 10.653C176.628 10.1768 177.621 9.93862 178.737 9.93862C179.866 9.93862 180.867 10.1768 181.737 10.653C182.622 11.1293 183.309 11.7825 183.799 12.6125C184.303 13.4426 184.554 14.4087 184.554 15.511C184.554 16.586 184.303 17.5453 183.799 18.389C183.309 19.2326 182.622 19.8994 181.737 20.3893C180.867 20.8656 179.866 21.1037 178.737 21.1037ZM178.737 18.9197C179.363 18.9197 179.921 18.7836 180.411 18.5114C180.901 18.2393 181.282 17.8447 181.554 17.3276C181.84 16.8105 181.982 16.2049 181.982 15.511C181.982 14.8034 181.84 14.1978 181.554 13.6943C181.282 13.1772 180.901 12.7826 180.411 12.5105C179.921 12.2383 179.37 12.1022 178.757 12.1022C178.131 12.1022 177.574 12.2383 177.084 12.5105C176.607 12.7826 176.226 13.1772 175.941 13.6943C175.655 14.1978 175.512 14.8034 175.512 15.511C175.512 16.2049 175.655 16.8105 175.941 17.3276C176.226 17.8447 176.607 18.2393 177.084 18.5114C177.574 18.7836 178.125 18.9197 178.737 18.9197ZM193.179 9.93862C194.05 9.93862 194.825 10.1087 195.506 10.4489C196.2 10.7891 196.744 11.313 197.139 12.0206C197.533 12.7146 197.73 13.6127 197.73 14.7149V20.9608H195.179V15.0415C195.179 14.0753 194.948 13.3541 194.485 12.8779C194.036 12.4016 193.403 12.1635 192.587 12.1635C191.988 12.1635 191.457 12.2859 190.995 12.5309C190.532 12.7758 190.171 13.1432 189.913 13.6331C189.668 14.1094 189.545 14.7149 189.545 15.4497V20.9608H186.994V10.0611H189.423V13.0003L188.994 12.1022C189.375 11.4082 189.926 10.8776 190.648 10.5101C191.383 10.1291 192.226 9.93862 193.179 9.93862ZM204.335 21.1037C203.423 21.1037 202.546 20.988 201.702 20.7567C200.872 20.5118 200.212 20.2192 199.722 19.879L200.702 17.9399C201.192 18.2529 201.777 18.5114 202.457 18.7156C203.138 18.9197 203.818 19.0217 204.498 19.0217C205.301 19.0217 205.879 18.9129 206.233 18.6951C206.601 18.4774 206.784 18.1849 206.784 17.8174C206.784 17.5181 206.662 17.2936 206.417 17.1439C206.172 16.9806 205.852 16.8581 205.458 16.7765C205.063 16.6948 204.621 16.62 204.131 16.5519C203.655 16.4839 203.172 16.3955 202.682 16.2866C202.205 16.1641 201.77 15.994 201.375 15.7763C200.981 15.545 200.661 15.2388 200.416 14.8578C200.171 14.4768 200.049 13.9733 200.049 13.3473C200.049 12.6533 200.246 12.0546 200.641 11.5511C201.035 11.034 201.586 10.6394 202.294 10.3673C203.015 10.0815 203.866 9.93862 204.845 9.93862C205.58 9.93862 206.322 10.0203 207.07 10.1836C207.819 10.3469 208.438 10.5782 208.928 10.8776L207.948 12.8166C207.431 12.5037 206.907 12.2927 206.376 12.1839C205.859 12.0614 205.342 12.0002 204.825 12.0002C204.049 12.0002 203.471 12.1158 203.09 12.3472C202.723 12.5785 202.539 12.8711 202.539 13.2249C202.539 13.5515 202.661 13.7964 202.906 13.9597C203.151 14.123 203.471 14.2522 203.866 14.3475C204.26 14.4428 204.696 14.5244 205.172 14.5924C205.662 14.6469 206.145 14.7353 206.621 14.8578C207.097 14.9803 207.533 15.1504 207.927 15.3681C208.336 15.5722 208.662 15.8648 208.907 16.2458C209.152 16.6268 209.275 17.1235 209.275 17.7358C209.275 18.4162 209.07 19.0081 208.662 19.5116C208.268 20.0151 207.703 20.4097 206.968 20.6955C206.233 20.9676 205.356 21.1037 204.335 21.1037Z" fill="white"/>
</svg>
