<svg width="167" height="14" viewBox="0 0 167 14" fill="none" xmlns="http://www.w3.org/2000/svg">
<path d="M133.237 10.692C132.641 10.692 132.092 10.5975 131.591 10.4086C131.097 10.2123 130.664 9.93981 130.294 9.59095C129.923 9.23483 129.636 8.81693 129.432 8.33725C129.229 7.85757 129.127 7.33429 129.127 6.7674C129.127 6.20051 129.229 5.67722 129.432 5.19755C129.636 4.71787 129.923 4.30361 130.294 3.95475C130.672 3.59863 131.111 3.32608 131.613 3.13712C132.114 2.94089 132.663 2.84277 133.259 2.84277C133.906 2.84277 134.487 2.94816 135.003 3.15892C135.526 3.36969 135.966 3.67857 136.322 4.08557L135.428 4.95771C135.13 4.65973 134.807 4.44169 134.458 4.30361C134.116 4.15825 133.739 4.08557 133.324 4.08557C132.925 4.08557 132.554 4.15098 132.212 4.2818C131.871 4.41262 131.576 4.59795 131.329 4.83779C131.082 5.07763 130.89 5.36107 130.751 5.68813C130.621 6.01518 130.555 6.37494 130.555 6.7674C130.555 7.15259 130.621 7.50872 130.751 7.83577C130.89 8.16282 131.082 8.4499 131.329 8.69701C131.576 8.93685 131.867 9.12217 132.201 9.253C132.536 9.38382 132.906 9.44923 133.313 9.44923C133.691 9.44923 134.055 9.39108 134.404 9.2748C134.76 9.15125 135.098 8.94775 135.417 8.6643L136.224 9.72177C135.824 10.0416 135.359 10.285 134.829 10.4522C134.305 10.6121 133.775 10.692 133.237 10.692ZM134.883 9.53644V6.68019H136.224V9.72177L134.883 9.53644ZM138.093 10.583V2.95179H141.233C141.909 2.95179 142.487 3.06081 142.966 3.27884C143.453 3.49688 143.828 3.80939 144.089 4.21639C144.351 4.62339 144.482 5.1067 144.482 5.66632C144.482 6.22595 144.351 6.70926 144.089 7.11625C143.828 7.51599 143.453 7.82487 142.966 8.0429C142.487 8.25367 141.909 8.35905 141.233 8.35905H138.878L139.511 7.71585V10.583H138.093ZM143.086 10.583L141.157 7.81397H142.672L144.613 10.583H143.086ZM139.511 7.86847L138.878 7.19257H141.168C141.793 7.19257 142.261 7.05811 142.574 6.7892C142.894 6.52029 143.054 6.146 143.054 5.66632C143.054 5.17938 142.894 4.80509 142.574 4.54344C142.261 4.2818 141.793 4.15098 141.168 4.15098H138.878L139.511 3.45327V7.86847ZM149.643 10.692C149.047 10.692 148.498 10.5939 147.997 10.3977C147.496 10.2014 147.059 9.9289 146.689 9.58005C146.318 9.22392 146.031 8.80966 145.828 8.33725C145.624 7.85757 145.522 7.33429 145.522 6.7674C145.522 6.20051 145.624 5.68086 145.828 5.20845C146.031 4.72877 146.318 4.31451 146.689 3.96565C147.059 3.60953 147.496 3.33335 147.997 3.13712C148.498 2.94089 149.044 2.84277 149.632 2.84277C150.228 2.84277 150.773 2.94089 151.268 3.13712C151.769 3.33335 152.205 3.60953 152.576 3.96565C152.946 4.31451 153.233 4.72877 153.437 5.20845C153.64 5.68086 153.742 6.20051 153.742 6.7674C153.742 7.33429 153.64 7.85757 153.437 8.33725C153.233 8.81693 152.946 9.23119 152.576 9.58005C152.205 9.9289 151.769 10.2014 151.268 10.3977C150.773 10.5939 150.232 10.692 149.643 10.692ZM149.632 9.44923C150.017 9.44923 150.374 9.38382 150.701 9.253C151.028 9.12217 151.311 8.93685 151.551 8.69701C151.791 8.4499 151.976 8.16646 152.107 7.84667C152.245 7.51962 152.314 7.15986 152.314 6.7674C152.314 6.37494 152.245 6.01881 152.107 5.69903C151.976 5.37198 151.791 5.08853 151.551 4.84869C151.311 4.60159 151.028 4.41262 150.701 4.2818C150.374 4.15098 150.017 4.08557 149.632 4.08557C149.247 4.08557 148.891 4.15098 148.564 4.2818C148.244 4.41262 147.961 4.60159 147.714 4.84869C147.474 5.08853 147.285 5.37198 147.147 5.69903C147.016 6.01881 146.95 6.37494 146.95 6.7674C146.95 7.15259 147.016 7.50872 147.147 7.83577C147.285 8.16282 147.474 8.4499 147.714 8.69701C147.953 8.93685 148.237 9.12217 148.564 9.253C148.891 9.38382 149.247 9.44923 149.632 9.44923ZM156.809 10.583L154.28 2.95179H155.752L158.008 9.85259H157.278L159.622 2.95179H160.93L163.208 9.85259H162.5L164.811 2.95179H166.163L163.633 10.583H162.129L160.047 4.35811H160.439L158.324 10.583H156.809Z" fill="white"/>
<ellipse cx="119.465" cy="7.3298" rx="2.2712" ry="2.24893" fill="#D9D9D9"/>
<path d="M1.39631 10.583V2.95179H2.81353V10.583H1.39631ZM4.87762 10.583V2.95179H6.04411L10.83 8.82783H10.2522V2.95179H11.6585V10.583H10.492L5.70615 4.70697H6.28395V10.583H4.87762ZM13.7033 10.583V2.95179H14.8698L19.6557 8.82783H19.0779V2.95179H20.4842V10.583H19.3177L14.5319 4.70697H15.1097V10.583H13.7033ZM26.1048 10.692C25.5089 10.692 24.9602 10.5939 24.4587 10.3977C23.9572 10.2014 23.5211 9.9289 23.1505 9.58005C22.7798 9.22392 22.4927 8.80966 22.2892 8.33725C22.0857 7.85757 21.984 7.33429 21.984 6.7674C21.984 6.20051 22.0857 5.68086 22.2892 5.20845C22.4927 4.72877 22.7798 4.31451 23.1505 3.96565C23.5211 3.60953 23.9572 3.33335 24.4587 3.13712C24.9602 2.94089 25.5052 2.84277 26.0939 2.84277C26.6899 2.84277 27.235 2.94089 27.7292 3.13712C28.2307 3.33335 28.6668 3.60953 29.0374 3.96565C29.4081 4.31451 29.6951 4.72877 29.8986 5.20845C30.1021 5.68086 30.2039 6.20051 30.2039 6.7674C30.2039 7.33429 30.1021 7.85757 29.8986 8.33725C29.6951 8.81693 29.4081 9.23119 29.0374 9.58005C28.6668 9.9289 28.2307 10.2014 27.7292 10.3977C27.235 10.5939 26.6935 10.692 26.1048 10.692ZM26.0939 9.44923C26.4791 9.44923 26.8353 9.38382 27.1623 9.253C27.4894 9.12217 27.7728 8.93685 28.0126 8.69701C28.2525 8.4499 28.4378 8.16646 28.5686 7.84667C28.7067 7.51962 28.7758 7.15986 28.7758 6.7674C28.7758 6.37494 28.7067 6.01881 28.5686 5.69903C28.4378 5.37198 28.2525 5.08853 28.0126 4.84869C27.7728 4.60159 27.4894 4.41262 27.1623 4.2818C26.8353 4.15098 26.4791 4.08557 26.0939 4.08557C25.7087 4.08557 25.3526 4.15098 25.0256 4.2818C24.7058 4.41262 24.4223 4.60159 24.1752 4.84869C23.9354 5.08853 23.7464 5.37198 23.6083 5.69903C23.4775 6.01881 23.4121 6.37494 23.4121 6.7674C23.4121 7.15259 23.4775 7.50872 23.6083 7.83577C23.7464 8.16282 23.9354 8.4499 24.1752 8.69701C24.4151 8.93685 24.6985 9.12217 25.0256 9.253C25.3526 9.38382 25.7087 9.44923 26.0939 9.44923ZM33.7286 10.583L30.3926 2.95179H31.9298L34.906 9.85259H34.0229L37.0318 2.95179H38.449L35.124 10.583H33.7286ZM37.9302 10.583L41.3642 2.95179H42.7596L46.2046 10.583H44.7219L41.7676 3.70401H42.3345L39.391 10.583H37.9302ZM39.5109 8.81693L39.8925 7.70495H44.0133L44.3949 8.81693H39.5109ZM48.3399 10.583V4.15098H45.8107V2.95179H52.2863V4.15098H49.7571V10.583H48.3399ZM54.6581 6.1242H58.4519V7.29068H54.6581V6.1242ZM54.7671 9.39472H59.0733V10.583H53.3499V2.95179H58.9207V4.14008H54.7671V9.39472Z" fill="white"/>
<path d="M76.5179 10.583V2.95179H80.0937C81.0094 2.95179 81.7071 3.13349 82.1868 3.49688C82.6665 3.853 82.9063 4.33268 82.9063 4.93591C82.9063 5.34291 82.8118 5.69176 82.6229 5.98247C82.4339 6.26592 82.1795 6.48759 81.8597 6.64748C81.5472 6.8001 81.2056 6.87642 80.835 6.87642L81.0312 6.48395C81.46 6.48395 81.8452 6.5639 82.1868 6.72379C82.5284 6.87642 82.7973 7.10172 82.9935 7.3997C83.197 7.69768 83.2988 8.06834 83.2988 8.51168C83.2988 9.16578 83.048 9.67453 82.5466 10.0379C82.0451 10.4013 81.3001 10.583 80.3117 10.583H76.5179ZM77.9351 9.47103H80.2245C80.755 9.47103 81.162 9.38382 81.4455 9.20939C81.7289 9.03496 81.8706 8.75515 81.8706 8.36995C81.8706 7.99203 81.7289 7.71585 81.4455 7.54142C81.162 7.35973 80.755 7.26888 80.2245 7.26888H77.8261V6.1678H79.941C80.4353 6.1678 80.8132 6.08059 81.0748 5.90616C81.3437 5.73173 81.4782 5.47009 81.4782 5.12124C81.4782 4.76511 81.3437 4.49984 81.0748 4.32541C80.8132 4.15098 80.4353 4.06377 79.941 4.06377H77.9351V9.47103ZM88.0927 10.692C87.0462 10.692 86.2249 10.3977 85.6289 9.80898C85.0402 9.22029 84.7459 8.36995 84.7459 7.25798V2.95179H86.1631V7.20347C86.1631 7.98839 86.3303 8.55892 86.6646 8.91504C87.0062 9.27117 87.4859 9.44923 88.1036 9.44923C88.7214 9.44923 89.1974 9.27117 89.5318 8.91504C89.8661 8.55892 90.0332 7.98839 90.0332 7.20347V2.95179H91.4287V7.25798C91.4287 8.36995 91.1307 9.22029 90.5347 9.80898C89.946 10.3977 89.132 10.692 88.0927 10.692ZM93.4135 10.583V2.95179H94.8307V10.583H93.4135ZM96.8948 10.583V2.95179H98.312V9.38382H102.302V10.583H96.8948ZM103.421 10.583V2.95179H106.757C107.585 2.95179 108.312 3.11168 108.937 3.43147C109.562 3.75125 110.049 4.19459 110.398 4.76148C110.747 5.32837 110.921 5.99701 110.921 6.7674C110.921 7.53052 110.747 8.19916 110.398 8.77332C110.049 9.34021 109.562 9.78355 108.937 10.1033C108.312 10.4231 107.585 10.583 106.757 10.583H103.421ZM104.838 9.38382H106.691C107.266 9.38382 107.76 9.2748 108.174 9.05676C108.596 8.83873 108.919 8.53348 109.144 8.14102C109.377 7.74856 109.493 7.29068 109.493 6.7674C109.493 6.23685 109.377 5.77897 109.144 5.39378C108.919 5.00132 108.596 4.69607 108.174 4.47803C107.76 4.26 107.266 4.15098 106.691 4.15098H104.838V9.38382Z" fill="white"/>
<ellipse cx="68.3627" cy="7.3298" rx="2.2712" ry="2.24893" fill="#D9D9D9"/>
</svg>
