<svg width="55" height="48" viewBox="0 0 55 48" fill="none" xmlns="http://www.w3.org/2000/svg">
<path d="M49.4505 0.130371H35.9164C33.1144 0.130371 30.8411 2.40368 30.8411 5.20565V18.7397C30.8411 21.5417 33.1144 23.815 35.9164 23.815H44.3752V30.5821C44.3752 34.3145 41.3406 37.3491 37.6082 37.3491H36.7623C35.356 37.3491 34.2246 38.4805 34.2246 39.8868V44.962C34.2246 46.3683 35.356 47.4997 36.7623 47.4997H37.6082C46.9551 47.4997 54.5258 39.9291 54.5258 30.5821V5.20565C54.5258 2.40368 52.2525 0.130371 49.4505 0.130371ZM18.9988 0.130371H5.46469C2.66271 0.130371 0.389404 2.40368 0.389404 5.20565V18.7397C0.389404 21.5417 2.66271 23.815 5.46469 23.815H13.9235V30.5821C13.9235 34.3145 10.8889 37.3491 7.15645 37.3491H6.31057C4.90429 37.3491 3.77293 38.4805 3.77293 39.8868V44.962C3.77293 46.3683 4.90429 47.4997 6.31057 47.4997H7.15645C16.5034 47.4997 24.0741 39.9291 24.0741 30.5821V5.20565C24.0741 2.40368 21.8008 0.130371 18.9988 0.130371Z" fill="#00357A"/>
</svg>
